<svg width="81" height="48" viewBox="0 0 81 48" fill="none" xmlns="http://www.w3.org/2000/svg">
<path d="M0.516634 22.2743C1.4638 21.2715 2.34638 20.2687 3.16438 19.266C4.00391 18.2632 4.94031 17.0898 5.97358 15.7456C6.01663 15.6816 6.05968 15.6283 6.10274 15.5856C6.16732 15.5216 6.22113 15.4469 6.26418 15.3616L9.36399 11.3932L6.19961 7.26474L5.909 6.91271C4.83268 5.48323 3.88552 4.28844 3.06751 3.32834C2.27104 2.34691 1.45303 1.41881 0.613503 0.544056V0.192019H10.9462L11.4628 3.80839L11.3014 4.00041C10.9139 3.9364 10.4618 3.8724 9.9452 3.80839C9.42857 3.72305 9.05186 3.68038 8.81506 3.68038L12.7544 9.05693L14.272 7.04072C14.5734 6.65668 15.0039 6.09129 15.5636 5.34455C15.7573 5.06719 15.9511 4.78982 16.1448 4.51246C16.3601 4.21377 16.5646 3.9364 16.7583 3.68038C16.3708 3.68038 15.9618 3.71238 15.5313 3.77639C15.1008 3.84039 14.7133 3.91507 14.3689 4.00041L14.1428 3.74438L14.5626 0.192019H24.5401V0.512052C24.0665 1.06678 23.5929 1.63217 23.1194 2.20823C22.6458 2.76295 22.183 3.30701 21.7309 3.84039C21.2573 4.41645 20.7837 5.00318 20.3102 5.60057C19.8366 6.17663 19.3738 6.76336 18.9217 7.36075L15.8865 11.2972L19.18 15.5536C19.8258 16.407 21.0205 17.8898 22.7642 20.0021C23.1947 20.4714 23.8405 21.2288 24.7016 22.2743V22.5943H14.2074L13.7554 19.0099L13.9491 18.7859C14.3581 18.8499 14.7994 18.9246 15.273 19.0099C15.7681 19.074 16.134 19.106 16.3708 19.106L12.4315 13.6014L10.7524 15.9056C10.5372 16.183 10.3219 16.471 10.1066 16.7697C9.89139 17.0684 9.66536 17.3778 9.42857 17.6978C9.27788 17.9325 9.11643 18.1672 8.94422 18.4019C8.77201 18.6366 8.61056 18.8713 8.45988 19.106C8.61056 19.106 8.83659 19.0846 9.13796 19.042C9.43933 18.9993 9.7407 18.9459 10.0421 18.8819C10.2143 18.8606 10.3757 18.8393 10.5264 18.8179C10.6771 18.7966 10.817 18.7859 10.9462 18.7859L11.1399 19.0099L10.6879 22.5943H0.516634V22.2743Z" fill="white"/>
<path d="M26.1902 22.2423C26.4485 21.6876 26.6853 21.1648 26.9005 20.6741C27.1373 20.1621 27.3633 19.6714 27.5786 19.202C28.0091 18.2845 28.4397 17.3351 28.8702 16.3537C29.3007 15.3509 29.7528 14.2415 30.2264 13.0253L34.0042 3.77639C33.5737 3.75505 33.1109 3.74438 32.6158 3.74438C32.1422 3.72305 31.6471 3.71238 31.1305 3.71238C31.0444 3.71238 30.9475 3.71238 30.8399 3.71238C30.7322 3.71238 30.6138 3.71238 30.4847 3.71238L31.7117 0C32.9172 0.0853423 34.2733 0.138681 35.7802 0.160016C37.287 0.181351 38.5571 0.192019 39.5903 0.192019H41.1725C41.926 2.47492 42.6794 4.5658 43.4328 6.46466L46.8555 14.8495C47.1999 15.767 47.5982 16.8017 48.0502 17.9538C48.3516 18.6579 48.653 19.3727 48.9543 20.0981C49.2772 20.8021 49.6109 21.5275 49.9553 22.2743V22.5943H40.8496L40.107 18.9779L40.2038 18.7859L40.7205 18.8499C41.1295 18.9139 41.56 18.9779 42.0121 19.042C42.4641 19.0846 42.8731 19.106 43.2391 19.106L41.9798 15.7776H33.5199C33.4768 15.8843 33.423 16.0016 33.3584 16.1297C33.3154 16.2577 33.2723 16.3857 33.2293 16.5137C32.8418 17.4951 32.5189 18.3592 32.2606 19.106C32.605 19.106 32.9925 19.0846 33.423 19.042C33.8751 18.9779 34.3164 18.9139 34.7469 18.8499C34.833 18.8286 34.9191 18.8179 35.0052 18.8179C35.1128 18.7966 35.2097 18.7859 35.2958 18.7859L35.425 18.9779L34.7146 22.5943H26.1902V22.2423ZM40.8496 12.3213L39.4935 8.89691C39.4719 8.83291 39.4504 8.77957 39.4289 8.7369C39.4074 8.67289 39.3858 8.61955 39.3643 8.57688C38.9768 7.5101 38.6324 6.64601 38.331 5.98461C38.0512 5.32321 37.7606 4.78983 37.4592 4.38445L34.7146 12.3213H40.8496Z" fill="white"/>
<path d="M55.5664 22.2743C55.6955 20.8448 55.7601 19.138 55.7601 17.1538V3.68038C55.4803 3.68038 55.0175 3.74438 54.3717 3.8724C53.7259 4.00041 53.1554 4.12842 52.6603 4.25644L52.5312 4.06442L53.2738 0.192019H63.5742C65.404 0.192019 66.9861 0.437378 68.3208 0.928095C69.6769 1.41881 70.721 2.12288 71.4529 3.04031C72.1848 3.9364 72.5507 4.99251 72.5507 6.20864C72.5507 7.29675 72.2171 8.27818 71.5497 9.15294C70.904 10.0277 69.9891 10.7104 68.8051 11.2011V11.3612C70.2689 11.7025 71.4098 12.3426 72.2278 13.2814C73.0674 14.1988 73.4871 15.3402 73.4871 16.7057C73.4871 18.5406 72.7229 19.9807 71.1946 21.0262C69.6662 22.0716 67.5781 22.5943 64.9304 22.5943H55.5664V22.2743ZM64.6075 18.8819C65.7699 18.8819 66.6848 18.6152 67.3521 18.0819C68.0409 17.5271 68.3854 16.8124 68.3854 15.9376C68.3854 15.4042 68.2239 14.9349 67.901 14.5295C67.5781 14.1028 67.1261 13.7721 66.5449 13.5374C65.9636 13.2814 65.3178 13.1533 64.6075 13.1533H60.4421V18.8819H64.6075ZM63.9294 9.60098C64.6613 9.60098 65.3071 9.48364 65.8668 9.24895C66.448 8.99292 66.8893 8.65155 67.1906 8.22484C67.492 7.7768 67.6427 7.26474 67.6427 6.68869C67.6427 6.13396 67.492 5.65391 67.1906 5.24854C66.8893 4.82183 66.448 4.49113 65.8668 4.25644C65.3071 4.02175 64.6613 3.9044 63.9294 3.9044H60.4421V9.60098H63.9294Z" fill="white"/>
<path d="M23.41 42.8475L22.6673 46.7199H15.047V46.3998C15.1761 44.757 15.2407 43.0502 15.2407 41.2793V38.079C14.229 38.271 13.1526 38.367 12.0117 38.367C9.01957 38.367 6.66242 37.6416 4.94031 36.1908C3.2182 34.74 2.35714 32.5957 2.35714 29.7581C2.35714 29.4381 2.3679 29.1181 2.38943 28.798C2.43248 28.4567 2.4863 28.126 2.55088 27.8059C2.35714 27.8059 2.08806 27.8486 1.74364 27.9339C1.39922 28.0193 1.05479 28.1046 0.710371 28.19C0.602739 28.2326 0.495107 28.2646 0.387475 28.286C0.30137 28.3073 0.204501 28.3393 0.0968688 28.382L0 28.19L0.678082 24.3176H7.74951V24.5416L7.71722 24.6696C7.48043 25.651 7.31898 26.4831 7.23287 27.1659C7.14677 27.8273 7.10371 28.6807 7.10371 29.7261C7.10371 31.2623 7.5773 32.4464 8.52446 33.2785C9.47162 34.1106 10.8063 34.5266 12.5284 34.5266C13.3679 34.5266 14.1644 34.4413 14.9178 34.2706C14.9609 34.2493 15.0147 34.2386 15.0792 34.2386C15.1438 34.2386 15.1976 34.2279 15.2407 34.2066V29.7581C15.2407 27.9873 15.1761 26.2804 15.047 24.6376V24.3176H20.3425V24.6376C20.2348 26.0671 20.181 27.7739 20.181 29.7581V43.2315C20.4609 43.2315 20.9237 43.1675 21.5695 43.0395C22.2153 42.8901 22.7857 42.7621 23.2808 42.6555L23.41 42.8475Z" fill="white"/>
<path d="M52.9002 42.8475L52.1576 46.7199H44.6018V46.3998C44.7094 44.9704 44.7632 43.2635 44.7632 41.2793V31.0063L31.3308 48H30.5881V47.68C30.6096 46.8052 30.6419 45.9411 30.685 45.0877C30.685 44.6183 30.6957 44.1703 30.7173 43.7436C30.7388 43.2955 30.7495 42.8475 30.7495 42.3994V27.8059C30.4697 27.8059 30.0069 27.8699 29.3611 27.9979C28.7153 28.126 28.1449 28.254 27.6497 28.382L27.5206 28.19L28.2632 24.3176H35.819V24.6376C35.7114 26.2804 35.6576 27.9873 35.6576 29.7581V36.6708L45.2799 24.3176H49.8327V24.6376C49.7251 26.9205 49.6713 28.6273 49.6713 29.7581V43.2315C49.9511 43.2315 50.4139 43.1675 51.0597 43.0395C51.7055 42.8901 52.276 42.7621 52.7711 42.6555L52.9002 42.8475Z" fill="white"/>
<path d="M60.044 46.3998C60.0871 45.7171 60.1194 44.9384 60.1409 44.0636C60.2055 43.1035 60.2378 42.1754 60.2378 41.2793V27.8059C59.9579 27.8059 59.4951 27.8699 58.8493 27.9979C58.2035 28.126 57.6331 28.254 57.138 28.382L57.0088 28.19L57.7515 24.3176H65.2427V24.6376C65.1996 25.7897 65.1673 26.7392 65.1458 27.4859C65.1028 28.2966 65.0812 29.0541 65.0812 29.7581V33.5025H68.4393L70.6027 30.6862C70.9902 30.1742 71.3562 29.6835 71.7006 29.2141C72.045 28.7447 72.3787 28.2646 72.7016 27.7739C72.4863 27.7739 72.1849 27.8059 71.7975 27.8699C71.41 27.9126 71.0333 27.9659 70.6673 28.03L69.5049 28.158L69.3757 27.9659L70.4736 24.3176H79.9667V24.6056C79.5793 25.0963 79.1918 25.587 78.8043 26.0778C78.4384 26.5471 78.0724 27.0165 77.7065 27.4859C77.3405 27.9766 76.9638 28.4673 76.5763 28.958C76.1889 29.4274 75.8014 29.9181 75.4139 30.4302L72.1204 34.6866L77.0607 41.5353C78.2446 43.0928 79.5577 44.6823 81 46.3038V46.7199H70.5705L69.6986 43.2635L69.8278 43.0715C70.0215 43.0928 70.226 43.1248 70.4413 43.1675C70.6566 43.2102 70.8718 43.2635 71.0871 43.3275C71.4315 43.4342 71.7867 43.5302 72.1526 43.6155C72.5186 43.7009 72.8307 43.7542 73.089 43.7756L68.5039 37.5349H65.0812V41.2793C65.0812 41.9834 65.1028 42.7408 65.1458 43.5515C65.1673 44.2983 65.1996 45.2477 65.2427 46.3998V46.7199H60.044V46.3998Z" fill="white"/>
</svg>
